<svg width="24" height="24" viewBox="0 0 24 24" fill="none" xmlns="http://www.w3.org/2000/svg">
<path d="M22.6461 0.0234833L20.6497 21.6476L12.0002 23.9765L3.35048 21.6476L1.35449 0.0234833H22.6461ZM18.6233 4.4204H11.9924H5.24404L5.56677 7.03172H11.9924H12.3533L11.9924 7.18195L5.80162 9.76036L6.00693 12.3128L11.9924 12.3322L15.2004 12.3424L14.9951 15.7458L11.9924 16.5912V16.5885L11.9677 16.5954L9.06787 15.8633L8.8919 13.7507H8.88229H6.19251H6.18304L6.53512 17.8291L11.9924 19.443V19.4401L12.0023 19.443L17.4304 17.8585L18.1345 9.76036H11.9924H11.9773L11.9924 9.75379L18.3595 7.03172L18.6233 4.4204Z" fill="black"/>
</svg>
