<svg width="24" height="24" viewBox="0 0 24 24" fill="none" xmlns="http://www.w3.org/2000/svg">
<path d="M1.43945 0.0234833L3.36152 21.5822L11.9868 23.9765L20.6359 21.5788L22.5601 0.0234833H1.43945ZM18.5507 5.13966L18.4304 6.48009L18.3775 7.07451H18.3688H11.9998H11.9905H8.25934L8.50098 9.78206H11.9905H11.9998H17.4243H18.1368L18.0723 10.492L17.451 17.4532L17.4112 17.8996L11.9998 19.3994V19.4L11.9876 19.4033L6.57138 17.8997L6.20092 13.7482H7.42427H8.85517L9.04342 15.8569L11.9881 16.6521L11.9905 16.6515V16.6512L14.9397 15.8554L15.2464 12.4261H11.9998H11.9905H6.0828L5.43297 5.13966L5.36964 4.43039H11.9906H11.9998H18.614L18.5507 5.13966Z" fill="black"/>
</svg>
