<svg width="24" height="24" viewBox="0 0 24 24" fill="none" xmlns="http://www.w3.org/2000/svg">
<g clip-path="url(#clip0_3364_161)">
<path d="M9.85688 17.6888L17.7019 13.2113L14.1379 11.1593L6.29813 15.6735L9.85688 17.6888ZM18.0626 8.5305L14.4949 6.4785V10.5413L18.0634 12.594L18.0626 8.5305ZM18.4189 3.8085L14.8519 5.8605L18.4189 7.9125L21.9851 5.85975L18.4189 3.8085ZM7.43288 14.196L9.50288 13.0043V4.05375L5.93438 6.10725V15.0578L7.43288 14.196ZM5.57738 1.3845L2.01038 3.43725L5.57738 5.49L9.14213 3.43725L5.57738 1.3845ZM1.65263 4.0545V17.8935L9.50063 22.41V18.3068L5.39663 15.9848C5.38313 15.975 5.37263 15.9645 5.35838 15.9555C5.34788 15.9458 5.33588 15.9383 5.32538 15.93L5.32463 15.9278C5.31338 15.9165 5.30363 15.9045 5.29538 15.891L5.29463 15.8903C5.28413 15.8805 5.27588 15.8693 5.26838 15.8565L5.26763 15.8558H5.26538C5.25938 15.8445 5.25338 15.8295 5.24738 15.8145L5.24663 15.8115C5.24138 15.8003 5.23538 15.7875 5.23013 15.7733L5.22938 15.771C5.22638 15.756 5.22338 15.7373 5.22188 15.7185V15.717C5.21963 15.7058 5.21738 15.6923 5.21588 15.6788V15.678V6.10875L3.14813 4.91625L1.65263 4.0545ZM18.0634 17.8928V13.8263L10.2154 18.3068V22.4093L18.0634 17.8928ZM22.3414 10.5413V6.4785L18.7744 8.53125V12.594L22.3414 10.5413ZM23.0434 5.7675C23.0516 5.796 23.0569 5.82825 23.0569 5.862V10.7468C23.0569 10.8788 22.9856 10.9935 22.8791 11.055L22.8776 11.0558L18.7766 13.4175V18.0983C18.7766 18.2295 18.7054 18.3443 18.5996 18.4065L18.5981 18.4073L10.0361 23.3348C10.0181 23.3445 9.99713 23.3535 9.97538 23.3595L9.97313 23.3603L9.95063 23.37C9.92363 23.3783 9.89213 23.3828 9.85988 23.3828C9.82763 23.3828 9.79613 23.3783 9.76613 23.3693L9.76838 23.37C9.75713 23.367 9.74813 23.3633 9.73913 23.358L9.73988 23.3588C9.71663 23.3505 9.69713 23.343 9.67838 23.334L9.68138 23.3355L1.12163 18.408C1.01363 18.345 0.942383 18.2303 0.942383 18.099V3.438C0.942383 3.405 0.947633 3.37275 0.956633 3.34275L0.955883 3.345C0.958883 3.33375 0.965633 3.32625 0.969383 3.315C0.976133 3.29325 0.983633 3.27525 0.991883 3.258L0.991133 3.26025C0.997133 3.24825 1.00463 3.23775 1.01288 3.22875L1.04438 3.186L1.07963 3.1605C1.09313 3.14925 1.10513 3.138 1.11863 3.12825H1.11938L5.40038 0.664501C5.45138 0.634501 5.51288 0.616501 5.57813 0.616501C5.64338 0.616501 5.70488 0.634501 5.75738 0.665251L5.75588 0.664501L10.0384 3.12825C10.0526 3.138 10.0646 3.1485 10.0766 3.15975L10.1126 3.18525C10.1246 3.19875 10.1314 3.21375 10.1441 3.228C10.1531 3.237 10.1606 3.2475 10.1674 3.25875L10.1681 3.2595C10.1756 3.2745 10.1831 3.2925 10.1899 3.31125L10.1906 3.31425L10.2026 3.34425C10.2109 3.3705 10.2161 3.40125 10.2161 3.43275C10.2161 3.43425 10.2161 3.43575 10.2161 3.43725V12.5933L13.7831 10.5405V5.85975C13.7831 5.859 13.7831 5.85825 13.7831 5.85825C13.7831 5.826 13.7876 5.7945 13.7959 5.7645L13.7951 5.76675C13.7981 5.757 13.8049 5.748 13.8071 5.73675C13.8146 5.71425 13.8221 5.69625 13.8311 5.67825L13.8296 5.68125C13.8364 5.67 13.8469 5.6625 13.8536 5.64975C13.8649 5.6355 13.8739 5.62125 13.8851 5.60925C13.8956 5.5995 13.9069 5.5905 13.9189 5.583L13.9196 5.58225C13.9331 5.5725 13.9444 5.5605 13.9586 5.55225H13.9594L18.2404 3.08775C18.2914 3.05775 18.3529 3.03975 18.4181 3.03975C18.4834 3.03975 18.5449 3.05775 18.5974 3.0885L18.5959 3.08775L22.8769 5.55225C22.8919 5.562 22.9024 5.5725 22.9166 5.5815C22.9279 5.59125 22.9406 5.59875 22.9511 5.60775C22.9631 5.62125 22.9721 5.63625 22.9834 5.64975C22.9916 5.65875 22.9991 5.66925 23.0059 5.67975L23.0066 5.6805C23.0156 5.697 23.0231 5.71575 23.0291 5.73525L23.0299 5.7375C23.0359 5.7465 23.0404 5.75625 23.0441 5.76675L23.0434 5.7675Z" fill="black"/>
</g>
<defs>
<clipPath id="clip0_3364_161">
<rect width="24" height="24" fill="white"/>
</clipPath>
</defs>
</svg>
