<svg width="24" height="24" viewBox="0 0 24 24" fill="none" xmlns="http://www.w3.org/2000/svg">
<path d="M10.7349 16.6583C11.1474 16.677 11.5689 16.6905 11.9957 16.6905C12.4269 16.6905 12.8529 16.6815 13.2707 16.6583C12.8529 17.1983 12.4404 17.676 12.0039 18.1313L12.0099 18.1253C11.5757 17.6753 11.1587 17.1968 10.7657 16.6988L10.7349 16.6583ZM6.46141 16.0583C7.27366 16.2645 8.26441 16.44 9.27541 16.548L9.37366 16.5563C9.99241 17.406 10.6179 18.1538 11.2892 18.8573L11.2809 18.8483C10.2977 19.9455 8.97091 20.7165 7.47016 20.9933L7.42891 20.9993C7.42591 20.9993 7.42291 20.9993 7.41991 20.9993C7.23391 20.9993 7.05841 20.9535 6.90466 20.8725L6.91066 20.8755C6.28666 20.5193 6.01591 19.1565 6.22666 17.4053C6.27691 16.974 6.35941 16.5203 6.46066 16.0575L6.46141 16.0583ZM17.5487 16.0485C17.6372 16.404 17.7204 16.857 17.7797 17.3175L17.7864 17.382C18.0017 19.1325 17.7362 20.4938 17.1174 20.8575C16.9794 20.934 16.8144 20.979 16.6389 20.979C16.6217 20.979 16.6044 20.9783 16.5872 20.9775H16.5894C15.0497 20.6963 13.7237 19.9305 12.7427 18.8468L12.7374 18.8408C13.3967 18.1485 14.0177 17.4023 14.5869 16.617L14.6304 16.554C15.7374 16.4385 16.7297 16.26 17.6964 16.0163L17.5487 16.0478V16.0485ZM7.33816 13.2495C7.52566 13.617 7.72216 13.983 7.93816 14.3505C8.15366 14.716 8.37391 15.073 8.59891 15.4215C7.94791 15.3263 7.31941 15.2063 6.71866 15.06C6.88741 14.4698 7.09891 13.8585 7.33741 13.248L7.33816 13.2495ZM16.6592 13.2308C16.9074 13.8465 17.1182 14.4608 17.2929 15.0563C16.6929 15.2033 16.0592 15.3278 15.4037 15.4215C15.6287 15.0698 15.8537 14.7075 16.0644 14.3363C16.2752 13.971 16.4724 13.5975 16.6607 13.23L16.6592 13.2308ZM5.71441 9.219C6.04141 10.3275 6.39241 11.2545 6.80116 12.1485L6.74491 12.012C6.39541 12.7658 6.04966 13.6875 5.76616 14.6363L5.72716 14.79C5.19766 14.6273 4.77166 14.4675 4.35691 14.2883L4.44316 14.3213C2.82016 13.6305 1.77016 12.7223 1.77016 12.0023C1.77016 11.2823 2.82016 10.3695 4.44316 9.68175C4.83691 9.513 5.26891 9.36075 5.71441 9.219ZM18.2687 9.21525C18.7224 9.3555 19.1537 9.51225 19.5572 9.68175C21.1802 10.3755 22.2302 11.2823 22.2302 12.0023C22.2257 12.7223 21.1757 13.6328 19.5527 14.322C19.1589 14.4908 18.7277 14.6423 18.2829 14.784C17.9529 13.6718 17.6019 12.7455 17.1947 11.85L17.2517 11.991C17.5997 11.238 17.9462 10.3163 18.2289 9.3675L18.2687 9.213V9.21525ZM15.3977 8.583C16.0494 8.67975 16.6772 8.79825 17.2779 8.946C17.1092 9.5385 16.8984 10.1475 16.6592 10.758C16.4717 10.3928 16.2752 10.0245 16.0592 9.65775C15.8484 9.29025 15.6234 8.9325 15.3984 8.58375L15.3977 8.583ZM8.59366 8.583C8.36866 8.93625 8.14366 9.29775 7.93366 9.6705C7.72291 10.0358 7.52566 10.4033 7.33816 10.7708C7.08991 10.1558 6.87916 9.543 6.70441 8.946C7.30441 8.80575 7.93666 8.6805 8.59291 8.5845L8.59366 8.583ZM12.0002 8.3445C12.6939 8.3445 13.3847 8.376 14.0642 8.4315C14.4447 8.977 14.8142 9.558 15.1727 10.1745C15.5212 10.7745 15.8392 11.3825 16.1267 11.9985C15.8379 12.6128 15.5214 13.2263 15.1772 13.8263C14.8209 14.445 14.4527 15.0338 14.0709 15.579C13.3884 15.6383 12.6969 15.6705 11.9994 15.6705C11.3057 15.6705 10.6149 15.6375 9.93541 15.5835C9.55516 15.0383 9.18391 14.4548 8.82691 13.8405C8.47841 13.2405 8.16041 12.6325 7.87291 12.0165C8.15716 11.4008 8.47816 10.7858 8.82241 10.185C9.17866 9.56625 9.54691 8.97975 9.92866 8.4345C10.6112 8.3745 11.3027 8.343 12.0002 8.343V8.3445ZM11.9859 5.88375C12.4209 6.33375 12.8379 6.8115 13.2302 7.3095L13.2602 7.34925C12.8477 7.3305 12.4262 7.31775 11.9994 7.31775C11.5682 7.31775 11.1422 7.32675 10.7244 7.34925C11.1414 6.80925 11.5539 6.3315 11.9912 5.87625L11.9852 5.88225L11.9859 5.88375ZM7.41016 3.02475C8.94991 3.30675 10.2752 4.0725 11.2569 5.1555L11.2622 5.1615C10.6029 5.8545 9.98191 6.60075 9.41266 7.3875L9.36916 7.4505C8.26291 7.56525 7.27066 7.74225 6.30466 7.986L6.45166 7.9545C6.34666 7.4955 6.26866 7.05075 6.21391 6.624C5.99866 4.8735 6.26416 3.51225 6.88291 3.15C7.03741 3.07725 7.21816 3.03225 7.40866 3.02625H7.41091L7.41016 3.02475ZM16.5677 3.006V3.012C16.5774 3.012 16.5887 3.01125 16.6007 3.01125C16.7799 3.01125 16.9487 3.0555 17.0972 3.1335L17.0912 3.1305C17.7152 3.48825 17.9859 4.85025 17.7752 6.60225C17.7249 7.0335 17.6424 7.488 17.5412 7.9515C16.7274 7.743 15.7367 7.56675 14.7257 7.4595L14.6297 7.45125C14.0102 6.60075 13.3847 5.853 12.7134 5.14875L12.7224 5.15775C13.7057 4.06275 15.0302 3.29175 16.5279 3.0135L16.5699 3.00675L16.5677 3.006ZM16.5722 1.9845C14.7407 2.26275 13.1552 3.15225 11.9972 4.4355L11.9912 4.44225C10.8249 3.15975 9.23941 2.27625 7.45291 2.0085L7.41091 2.00325C7.40116 2.00325 7.38916 2.00325 7.37716 2.00325C7.00891 2.00325 6.66316 2.1 6.36391 2.2695L6.37441 2.26425C5.08591 3.0075 4.79716 5.3235 5.46241 8.22975C2.60941 9.111 0.753906 10.5195 0.753906 12.0038C0.753906 13.494 2.61916 14.9063 5.48041 15.7808C4.82041 18.6983 5.11516 21.018 6.40666 21.7605C6.69016 21.9233 7.03066 22.0185 7.39291 22.0185C7.40941 22.0185 7.42591 22.0185 7.44166 22.0178H7.43941C9.27091 21.7395 10.8564 20.8493 12.0144 19.5653L12.0204 19.5585C13.1867 20.8418 14.7722 21.7253 16.5587 21.993L16.6007 21.9983C16.6119 21.9983 16.6262 21.9983 16.6397 21.9983C17.0057 21.9983 17.3499 21.9023 17.6477 21.735L17.6372 21.7403C18.9249 20.9978 19.2144 18.6818 18.5492 15.7748C21.3917 14.901 23.2472 13.4895 23.2472 12.003C23.2472 10.5128 21.3819 9.1005 18.5207 8.22375C19.1807 5.30925 18.8859 2.98725 17.5944 2.244C17.3079 2.07975 16.9644 1.983 16.5984 1.983C16.5887 1.983 16.5789 1.983 16.5692 1.983H16.5707L16.5722 1.9845ZM14.0904 12.0038C14.0904 13.161 13.1522 14.0993 11.9949 14.0993C10.8377 14.0993 9.89941 13.161 9.89941 12.0038C9.89941 10.8465 10.8377 9.90825 11.9949 9.90825C12.5739 9.90825 13.0974 10.143 13.4769 10.5218C13.8564 10.9013 14.0904 11.4248 14.0904 12.0038Z" fill="black"/>
</svg>
